<svg xmlns="http://www.w3.org/2000/svg" width="307" height="72" viewBox="0 0 707 166">
  <path fill="#8f92ae" fill-rule="nonzero"  d="M259.287 74.33c-5.044.143-8.47 3.796-8.47 8.67 0 5.1 3.44 8.71 8.5 8.836l.277.004h36.795c3.17 0 5.737-1.573 7.263-3.838l13.199.004c-2.058 9.025-9.793 14.85-20.077 14.991l-.385.003h-36.795c-12.013 0-21.065-8.011-21.065-20 0-11.74 8.495-19.738 20.471-19.994V63h37.39c10.478 0 18.381 5.86 20.463 15.001l-13.227.005c-1.481-2.12-3.925-3.586-6.942-3.676l-.295-.004H289l-29.713.004ZM103.47 63c10.174 0 17.945 5.484 20.312 14.172l.095.358h-13.55c-1.322-1.758-3.614-3.105-6.53-3.199l-.327-.005h-7.406c-5.321 0-8.777 3.702-8.777 8.84 0 5.1 3.334 8.869 8.494 9.002l.283.003h7.406c3.129 0 5.54-1.342 6.39-2.63l.083-.132H99.85v-8.84l24.521.055V83c0 10.99-8.435 19.816-20.521 19.997l-.38.003h-7.405C84.051 103 75 94.989 75 83c0-11.812 8.599-19.835 20.69-19.997l.375-.003h7.406Zm230.192.663v13.536h21.072V63.663h12.042v38.674h-12.042V87.972h-21.072v14.365H321.62V63.663h12.042Zm50.629 27.238v11.436H372.25V90.901h12.042Zm43.951-27.238V74.16h-26.436v5.304h22.714v10.497h-22.714v12.376h-12.042V63.663h38.478Zm42.583 0 10.126 38.674h-12.206l-1.587-6.133h-21.894l-1.587 6.133h-12.15l10.125-38.674h29.173Zm25.178 0 13.629 14.254 13.081-14.254h11.768v38.674h-11.768V81.564l-13.081 13.425-13.63-13.702v21.05h-11.767V63.663h11.768Zm55.993 0v38.674h-12.042V63.663h12.042Zm17.515 0v28.011h25.287v10.663H557.47V63.663h12.042Zm26.291 0L606.04 76.37l10.235-12.707h14.723L612.06 87.365v14.972h-12.041V87.254L581.08 63.663h14.723Zm-454.974 0v28.011h25.344v10.663H128.76V63.663h12.069Zm42.898 0v38.674h-12.069V63.663h12.069Zm50.414 0v10.663h-16.403v28.011H205.67V74.326h-16.457V63.663h44.928Zm227.38 10.663h-10.673l-2.846 11.105h16.366l-2.847-11.105Z"/>
</svg>