<svg xmlns="http://www.w3.org/2000/svg" width="307" height="72" viewBox="0 0 307 72">
  <path fill="#8f92ae" d="M125.35 32.24H112.46c-2.187.061-3.673 1.646-3.673 3.76 0 2.212 1.492 3.777 3.687 3.832l.12.002h15.96c1.76 0 3.092-1.12 3.596-2.555l.035-.105h5.413c-.516 4.477-4.049 7.433-8.878 7.5h-16.126c-5.21 0-9.137-3.474-9.137-8.674 0-5.093 3.685-8.561 8.88-8.672v-.003h16.216c4.859 0 8.44 2.904 9.026 7.347l.02.153h-5.414c-.463-1.426-1.764-2.534-3.504-2.586l-.128-.002h-3.205v.002zm-80.471-4.915c4.413 0 7.783 2.379 8.81 6.147l.041.155h-5.877c-.574-.762-1.568-1.346-2.833-1.387l-.141-.003h-3.212c-2.308 0-3.807 1.606-3.807 3.835 0 2.212 1.446 3.846 3.684 3.904l.123.002h3.212c1.357 0 2.403-.583 2.772-1.14l.035-.059h-4.378v-3.834l10.636.024V36c0 4.768-3.659 8.596-8.9 8.674l-.165.001h-3.212c-5.211 0-9.137-3.474-9.137-8.674 0-5.124 3.73-8.603 8.974-8.674l.163-.001h3.212zm99.842.288v5.87h9.14v-5.87h5.223v16.774h-5.223v-6.23h-9.14v6.23h-5.223V27.613h5.223zm21.96 11.813v4.96h-5.223v-4.96h5.223zm19.063-11.813v4.553h-11.467v2.3h9.853v4.553h-9.853v5.368h-5.222V27.613h16.689zm18.47 0l4.392 16.774h-5.294l-.689-2.66h-9.496l-.688 2.66h-5.27l4.391-16.774h12.654zm10.92 0l5.911 6.182 5.674-6.182h5.104v16.774h-5.104v-9.01l-5.674 5.823-5.91-5.943v9.13h-5.105V27.613h5.104zm24.286 0v16.774h-5.223V27.613h5.223zm7.597 0v12.149h10.968v4.625h-16.19V27.613h5.222zm11.404 0l4.439 5.511 4.44-5.511h6.385l-8.214 10.28v6.494h-5.222v-6.542l-8.214-10.232h6.386zm-197.339 0v12.149h10.993v4.625H55.848V27.613h5.234zm18.607 0v16.774h-5.235V27.613h5.235zm21.866 0v4.624H94.44v12.15h-5.235v-12.15h-7.138v-4.624h19.487zm98.623 4.624h-4.63l-1.234 4.817h7.098l-1.234-4.817z"/>
</svg>
