<svg xmlns="http://www.w3.org/2000/svg" width="22" height="20" viewBox="0 0 22 20">
  <path fill="#FFF" fill-opacity=".5" fill-rule="evenodd" d="M100,0 C100.723245,0 101.328744,0.249574492 101.816514,0.748730964 C102.304284,1.24788744 102.548165,1.85278832 102.548165,2.56345178 C102.548165,3.27411523 102.304284,3.87901612 101.816514,4.37817259 C101.328744,4.87732906 100.740065,5.12690355 100.050459,5.12690355 C99.3103939,5.12690355 98.6922808,4.88155914 98.1961009,4.39086294 C97.6999211,3.90016675 97.4518349,3.29949594 97.4518349,2.58883249 C97.4518349,1.87816904 97.6999211,1.26903807 98.1961009,0.76142132 C98.6922808,0.253804569 99.2935744,0 100,0 Z M108.426606,14.7715736 C109.133031,14.7715736 109.73853,15.016918 110.243119,15.5076142 C110.747709,15.9983104 111,16.5989812 111,17.3096447 C111,18.0033876 110.747709,18.6125185 110.243119,19.1370558 C109.73853,19.6615931 109.14985,19.9238579 108.477064,19.9238579 C107.736999,19.9238579 107.118886,19.6785135 106.622706,19.1878173 C106.126527,18.6971211 105.87844,18.0879901 105.87844,17.3604061 C105.87844,16.6328221 106.122322,16.019461 106.610092,15.5203046 C107.097862,15.0211481 107.70336,14.7715736 108.426606,14.7715736 Z M91.6995413,14.7461929 C92.4059668,14.7461929 93.0030557,14.9957674 93.4908257,15.4949239 C93.9785957,15.9940803 94.2224771,16.6074414 94.2224771,17.3350254 C94.2224771,18.0626094 93.9659812,18.6886607 93.4529817,19.213198 C92.9399821,19.7377353 92.3386885,20 91.6490826,20 C90.942657,20 90.3245439,19.7377353 89.7947248,19.213198 C89.2649056,18.6886607 89,18.0795297 89,17.3857868 C89,16.725885 89.281725,16.1209841 89.8451835,15.571066 C90.408642,15.0211478 91.026755,14.7461929 91.6995413,14.7461929 Z" transform="translate(-89)"/>
</svg>
