<?xml version="1.0" standalone="no"?>
<!DOCTYPE svg PUBLIC "-//W3C//DTD SVG 20010904//EN"
 "http://www.w3.org/TR/2001/REC-SVG-20010904/DTD/svg10.dtd">
<svg version="1.0" xmlns="http://www.w3.org/2000/svg"
 width="700.000000pt" height="700.000000pt" viewBox="0 0 700.000000 700.000000"
 preserveAspectRatio="xMidYMid meet">
<metadata>
Created by potrace 1.11, written by Peter Selinger 2001-2013
</metadata>
<g transform="translate(0.000000,700.000000) scale(0.100000,-0.100000)"
fill="#000000" stroke="none">
<path d="M3333 5305 c-185 -40 -344 -199 -393 -393 -16 -62 -13 -196 5 -265
20 -77 45 -124 103 -194 120 -144 293 -206 497 -178 195 27 385 222 411 423 8
59 7 156 -1 202 -17 98 -84 213 -170 293 -40 37 -140 93 -192 107 -66 17 -191
19 -260 5z"/>
<path d="M2200 3294 c-153 -41 -314 -175 -387 -323 -84 -172 -57 -378 70 -529
147 -177 342 -247 545 -196 163 41 314 185 373 354 30 84 32 254 5 344 -46
154 -179 289 -336 341 -68 23 -201 27 -270 9z"/>
<path d="M4560 3293 c-141 -18 -227 -55 -316 -135 -132 -121 -184 -275 -161
-479 18 -162 145 -326 302 -392 145 -60 325 -56 449 11 71 38 194 164 232 237
103 197 70 438 -81 591 -94 95 -192 148 -298 160 -93 10 -102 10 -127 7z"/>
</g>
</svg>
